<?xml version="1.0" encoding="UTF-8" standalone="no"?>
<!-- Created with Inkscape (http://www.inkscape.org/) -->

<svg
   xmlns:dc="http://purl.org/dc/elements/1.1/"
   xmlns:cc="http://creativecommons.org/ns#"
   xmlns:rdf="http://www.w3.org/1999/02/22-rdf-syntax-ns#"
   xmlns:svg="http://www.w3.org/2000/svg"
   xmlns="http://www.w3.org/2000/svg"
   xmlns:sodipodi="http://sodipodi.sourceforge.net/DTD/sodipodi-0.dtd"
   xmlns:inkscape="http://www.inkscape.org/namespaces/inkscape"
   version="1.1"
   id="svg1642"
   width="1569.3333"
   height="1100"
   viewBox="0 0 1569.3333 1100"
   sodipodi:docname="Noodle.svg"
   inkscape:version="0.92.5 (2060ec1f9f, 2020-04-08)"
   inkscape:export-filename="/le_Bagage/TN/PPII2/test_noodle/logo_ico.png"
   inkscape:export-xdpi="3.9762108"
   inkscape:export-ydpi="3.9762108">
  <metadata
     id="metadata1648">
    <rdf:RDF>
      <cc:Work
         rdf:about="">
        <dc:format>image/svg+xml</dc:format>
        <dc:type
           rdf:resource="http://purl.org/dc/dcmitype/StillImage" />
        <dc:title></dc:title>
      </cc:Work>
    </rdf:RDF>
  </metadata>
  <defs
     id="defs1646" />
  <sodipodi:namedview
     pagecolor="#ffffff"
     bordercolor="#666666"
     borderopacity="1"
     objecttolerance="10"
     gridtolerance="10"
     guidetolerance="10"
     inkscape:pageopacity="0"
     inkscape:pageshadow="2"
     inkscape:window-width="1920"
     inkscape:window-height="1023"
     id="namedview1644"
     showgrid="false"
     inkscape:zoom="0.41002372"
     inkscape:cx="418.71371"
     inkscape:cy="660.83138"
     inkscape:window-x="0"
     inkscape:window-y="0"
     inkscape:window-maximized="1"
     inkscape:current-layer="g1664" />
  <g
     id="g1757"
     style="fill:#f4f4f4;fill-opacity:0.99616855"
     transform="translate(0,-38.31187)">
    <circle
       r="253.64386"
       cy="490.66467"
       cx="785.32043"
       id="path1720"
       style="opacity:1;fill:#f4f4f4;fill-opacity:0.99616855;fill-rule:evenodd;stroke:none;stroke-width:14.60787392;stroke-miterlimit:4;stroke-dasharray:none;stroke-dashoffset:0;stroke-opacity:1;paint-order:stroke fill markers" />
    <circle
       r="233.38039"
       cy="594.53882"
       cx="961.86823"
       id="path1720-3"
       style="opacity:1;fill:#f4f4f4;fill-opacity:0.99616855;fill-rule:evenodd;stroke:none;stroke-width:13.44085884;stroke-miterlimit:4;stroke-dasharray:none;stroke-dashoffset:0;stroke-opacity:1;paint-order:stroke fill markers" />
    <ellipse
       cy="550.13177"
       cx="554.44312"
       id="path1720-3-2"
       style="opacity:1;fill:#f4f4f4;fill-opacity:0.99616855;fill-rule:evenodd;stroke:none;stroke-width:12.19935322;stroke-miterlimit:4;stroke-dasharray:none;stroke-dashoffset:0;stroke-opacity:1;paint-order:stroke fill markers"
       rx="211.8235"
       ry="208.15883" />
  </g>
  <g
     id="g1664"
     transform="matrix(1.0497163,0,0,1.0497163,-54.481852,-373.0793)">
    <path
       style="fill:#aaaaaa;stroke-width:1.33333337"
       d="m 365.2623,935.9962 c 0,0 -2.84584,-1.14006 -1.94167,-1.74342 0.90417,-0.60335 15.8957,-1.72215 15.8957,-1.72215 9.83839,-0.41584 18.34357,-0.91067 18.88821,-1.45619 0.54465,-0.54552 -1.19347,-5.64552 -3.8625,-11.33333 -6.69625,-14.26999 -12.38123,-31.60643 -14.33405,-43.71189 -2.50417,-15.52326 -0.8445,-63.26251 2.7014,-77.7041 2.95548,-12.03688 12.90821,-37.49316 18.23976,-46.65214 1.83347,-3.14966 5.24245,-9.29783 7.57553,-13.6626 6.42024,-12.01108 25.6851,-34.24135 41.26124,-47.61252 10.56006,-9.06518 18.21415,-14.21124 31.77892,-21.36587 37.03043,-19.53139 73.30759,-25.80417 95.25181,-24.40998 21.94422,1.39419 28.93467,-1.3126 28.93467,-1.3126 l 1.86963,-2.09685 c 5.65334,-6.34041 17.11166,-21.28973 24.43069,-28.14325 3.32659,-3.11501 7.79745,-7.30041 9.93525,-9.30087 4.48394,-4.19586 23.31334,-17.97216 31.99042,-23.40538 11.02746,-6.90494 34.94311,-18.34059 46.89291,-22.42263 28.87626,-9.86407 47.3728,-12.34587 85.89643,-11.52533 31.92717,0.68005 44.82725,2.70804 70.29644,11.05112 53.09649,17.39312 104.12348,58.09921 133.55341,106.54044 2.6847,4.41896 5.659,7.65933 7.3333,7.9894 1.5493,0.3054 6.7168,1.2416 11.4835,2.08046 4.7667,0.83886 15.1914,3.6774 23.166,6.30788 12.6037,4.1574 14.8698,4.55326 17.3333,3.02776 1.5587,-0.96522 90.434,-68.17373 197.5007,-149.35226 107.0667,-81.17852 196.5869,-148.58648 198.9337,-149.79546 14.4607,-7.44916 28.9108,7.53417 20.5266,21.2838 -1.565,2.5663 -75.4276,59.42972 -193.658,149.08811 -105.1205,79.71672 -191.5935,145.77088 -192.1622,146.787 -0.7253,1.29607 1.0645,3.41055 5.9963,7.08412 3.8667,2.88013 11.692,9.50911 17.3898,14.73105 5.9033,5.41032 11.5531,9.49444 13.1343,9.49444 1.5262,0 69.1644,-33.53082 150.3072,-74.51294 207.1568,-104.62703 230.4038,-116.15372 234.2568,-116.15372 8.1378,0 15.2755,7.35328 15.2755,15.73661 0,9.76515 6.7309,6.04084 -191.9773,106.22256 -102.2876,51.56977 -186.5233,94.62855 -187.1905,95.68619 -0.8438,1.3377 0.177,4.32202 3.3539,9.80546 23.7097,40.9239 32.8643,90.48594 25.1361,136.08335 -1.4727,8.68953 -3.2725,17.53799 -3.9994,19.66321 -2.126,6.21543 0.025,7.46928 12.8151,7.46928 10.9515,0 8.9011,0.42088 9.7749,3.90234 -422.46603,4.01904 -416.8248,3.09666 -839.9838,-0.6391 z m 74.8835,-20.46818 c 6.39395,-26.04378 22.01904,-53.88834 41.31404,-73.62328 10.73683,-10.98164 27.58348,-22.8993 43.95634,-31.09556 24.00777,-12.01831 44.67787,-16.74288 73.25047,-16.74288 45.40155,0 84.8112,16.07918 116.54733,47.55145 23.86843,23.66997 36.48442,44.80241 46.03747,77.11521 l 3.54772,12 h 7.26707 7.26708 l -0.4246,-5.26897 c -0.23354,-2.89793 -2.24782,-10.99793 -4.47618,-18 -10.17364,-31.96804 -27.0606,-58.26596 -52.1895,-81.27421 -56.42009,-51.65879 -136.95008,-63.43739 -204.18556,-29.86491 -32.68418,16.32008 -61.87125,44.6584 -78.41586,76.13555 -7.86132,14.95665 -10.99175,23.20837 -15.02515,39.60588 -4.83844,19.67032 -4.86524,19.55032 4.25663,19.06653 l 7.53977,-0.39987 z m 28.98286,13.53828 c 0.67237,-1.28334 1.6723,-4.43334 2.22208,-7 3.7834,-17.66346 18.59442,-43.58198 33.14714,-58.00578 16.01616,-15.87429 37.90147,-28.47872 59.50211,-34.26914 9.75925,-2.61614 14.57409,-3.0372 34.66666,-3.03168 25.38442,0.007 31.13328,1.00045 50.37656,8.70584 16.72608,6.69745 30.36028,15.6231 43.68847,28.60076 17.64021,17.17628 28.64249,34.70932 35.97765,57.33333 l 3.02605,9.33333 6.29622,0.41308 c 10.07714,0.66115 10.22008,0.44766 7.1501,-10.67912 -3.67662,-13.32546 -15.45058,-37.12137 -23.9481,-48.40062 -20.04211,-26.60303 -47.34296,-46.0566 -78.40651,-55.86956 -50.1195,-15.83275 -102.22314,-4.43168 -144.52246,31.6237 -10.61543,9.04844 -23.86939,27.01292 -31.66031,42.91252 -6.65437,13.58014 -13.92073,35.8212 -12.72293,38.94264 1.06793,2.78298 13.69504,2.27704 15.20727,-0.6093 z m 36.75222,-9.35583 c 11.93886,-29.6514 35.03696,-50.06904 67.05353,-59.27219 14.53564,-4.17825 36.7094,-4.13946 51.6413,0.0904 31.55269,8.93806 57.36529,31.45082 69.95348,61.01076 l 3.9151,9.19356 6.96823,0.40962 c 3.83253,0.22529 7.52134,-0.1435 8.19737,-0.81952 1.86597,-1.86602 -5.95539,-20.77496 -13.34246,-32.2568 -23.24451,-36.1293 -59.97458,-56.39739 -102.26744,-56.43243 -19.73282,-0.0164 -32.49184,3.06919 -52.60208,12.72084 -12.66037,6.07617 -15.23553,7.9854 -28.14476,20.86652 -9.74784,9.72663 -15.80156,17.06099 -19.28039,23.35909 -5.54225,10.03376 -12.92433,29.94631 -11.78517,31.78951 0.39289,0.63572 3.98604,0.97749 7.98476,0.75949 l 7.27043,-0.39636 z m 32.50247,4.68916 c 18.17524,-32.03695 57.12008,-44.26793 90.2833,-28.35432 10.72783,5.14783 23.89147,16.47909 29.83626,25.68308 2.25149,3.48584 4.73305,7.08791 5.51458,8.00457 1.44352,1.69312 14.8251,2.37963 16.36515,0.83958 1.35789,-1.3579 -6.39789,-15.47178 -13.15624,-23.94158 -8.15036,-10.2143 -16.12476,-16.66116 -28.74195,-23.23624 -13.58214,-7.07794 -24.33078,-9.69509 -39.8178,-9.69509 -28.01704,0 -52.05954,11.81007 -68.04603,33.42531 -6.34642,8.58093 -12.33912,21.18105 -11.06962,23.27469 0.33351,0.55 3.81368,1 7.73374,1 h 7.12736 z m 38.93376,3.01895 c 12.44302,-8.2547 25.88186,-8.44872 40.95644,-0.59132 7.2812,3.79522 10.19962,4.57237 17.17061,4.57237 4.61915,0 8.72063,-0.52129 9.1144,-1.15843 1.27939,-2.07009 -14.93248,-16.18616 -22.85028,-19.89628 -7.0386,-3.29816 -9.09836,-3.61196 -23.70829,-3.61196 -15.68858,0 -16.16383,0.0888 -24.41679,4.56359 -8.42365,4.56729 -20.88988,16.65551 -19.49835,18.90708 0.40655,0.6578 4.45378,1.19343 8.99383,1.19029 6.92347,-0.005 9.2196,-0.64586 14.23843,-3.97534 z m 233.65957,-4.19772 c 5.7855,-11.92896 7.68997,-21.4607 7.68997,-38.4879 0,-17.58446 -1.91899,-26.76105 -8.50415,-40.66666 -8.46689,-17.87923 -21.42048,-31.15716 -39.67805,-40.67158 -14.40591,-7.50722 -24.26131,-9.76733 -41.15113,-9.43704 -17.54022,0.343 -20.09647,0.56371 -18.93334,1.63462 6.00527,5.52917 19.36618,14.22421 20.93315,13.6229 3.80715,-1.46093 20.08389,2.39158 29.8186,7.0577 12.51716,5.99984 27.39635,20.26766 33.2284,31.8631 6.68661,13.29451 8.83244,22.41626 8.76597,37.26363 -0.0501,11.19329 -0.65397,14.93836 -3.7623,23.33333 -3.73806,10.09575 -4.62159,16.18456 -2.9722,20.48279 0.68293,1.77971 2.11002,2.24607 5.911,1.93167 4.63701,-0.38355 5.28244,-0.97471 8.65408,-7.92656 z m 33.26752,2.84544 c 6.27829,-13.05519 8.46873,-47.51498 4.30481,-67.72288 -5.879,-28.53134 -22.86364,-55.33271 -46.34391,-73.12959 -11.05306,-8.37767 -29.78116,-17.11275 -44.2852,-20.65531 -16.67705,-4.0733 -39.76645,-4.08969 -54.58658,-0.0387 -13.71913,3.75001 -27.34339,9.42141 -27.29749,11.36318 0.0197,0.83415 3.90194,3.24344 8.62718,5.35396 8.1985,3.66187 8.79128,3.74276 12.96415,1.76906 8.47876,-4.01032 26.15298,-6.689 38.32785,-5.80891 50.15707,3.62575 90.43951,41.01409 98.62129,91.53587 2.6849,16.57889 0.62211,36.88981 -5.33948,52.57476 -3.82517,10.06401 -3.71081,10.28448 5.0965,9.8251 7.29598,-0.38053 7.77517,-0.6255 9.91088,-5.06653 z m 34.75658,-4.66667 c 8.46269,-33.83928 4.20907,-72.79156 -11.47217,-105.05547 -18.83592,-38.7546 -51.74919,-67.2106 -92.70152,-80.14742 -15.71844,-4.96546 -38.50468,-7.96146 -52.16044,-6.85822 -23.92452,1.93287 -38.89885,6.12576 -60.36042,16.90122 -12.32711,6.18922 -25.63958,15.24686 -25.63958,17.44488 0,0.79849 4.5,2.51608 10,3.81688 l 10,2.36506 2.66667,-3.1907 c 3.61841,-4.32947 22.82577,-13.17419 36.66667,-16.88448 9.75925,-2.61614 14.57409,-3.0372 34.66666,-3.03168 25.38441,0.007 31.13328,1.00045 50.37656,8.70584 16.72608,6.69745 30.36028,15.6231 43.68847,28.60076 19.69444,19.17648 31.62109,39.7723 38.95243,67.2659 2.9625,11.10979 3.38875,15.37024 3.3417,33.40076 -0.0459,17.56903 -0.54327,22.51511 -3.3187,32.99896 -1.79562,6.78276 -2.93813,12.65894 -2.53889,13.05818 0.39924,0.39922 4.04971,0.5497 8.11216,0.33437 l 7.38627,-0.39151 z m 32.52107,1.33333 c 2.91314,-14.38282 4.76373,-36.94614 3.8747,-47.24252 -4.6818,-54.22266 -24.1787,-95.44617 -61.15351,-129.30066 -56.4201,-51.65879 -136.95008,-63.43739 -204.18556,-29.86491 -6.56837,3.27976 -16.44223,9.06331 -21.94189,12.85232 -11.48003,7.9092 -35.1182,29.93355 -34.02514,31.70216 0.40347,0.65283 4.62475,1.18695 9.38063,1.18695 h 8.64705 l 10.88935,-8.86347 c 33.48863,-27.25831 66.164,-39.13653 107.65917,-39.13653 45.40155,0 84.8112,16.07918 116.54733,47.55145 27.6528,27.42288 44.14936,58.80433 49.64959,94.44855 2.49154,16.14652 1.73721,52.91681 -1.33958,65.29833 -1.08861,4.38076 -1.67392,8.45912 -1.30068,9.06303 0.37324,0.60392 4.05352,0.91966 8.1784,0.70166 l 7.49978,-0.39636 z m 53.1448,7.33334 c -0.45323,-0.73334 -2.55323,-1.33334 -4.66667,-1.33334 -2.11344,0 -4.21344,0.6 -4.66667,1.33334 -0.49841,0.80644 1.34572,1.33333 4.66667,1.33333 3.32095,0 5.16508,-0.52689 4.66667,-1.33333 z m 76.66665,0.108 c 0,-2.6574 -16.0331,-13.92139 -28.6667,-20.13964 -21.14106,-10.40568 -44.7131,-14.72083 -65.99995,-12.0821 -13.86935,1.71926 -17.33334,4.58319 -17.33334,14.33071 0,5.24255 0.31751,5.94253 2.33334,5.14403 7.89958,-3.12916 21.87932,-4.90638 33,-4.19522 15.31508,0.97939 28.49025,4.68816 43.08455,12.12815 10.8615,5.53704 12.2665,5.9086 22.5821,5.97189 6.05,0.0371 11,-0.4839 11,-1.15782 z m 41.8474,0.13892 c 0.9284,-1.50218 -15.9858,-21.03734 -24.0486,-27.77506 -24.9497,-20.8495 -53.0136,-32.77842 -86.13604,-36.61333 -13.00496,-1.50571 -35.76555,-0.26716 -39.69267,2.15993 -0.71688,0.44306 -1.30342,3.92015 -1.30345,7.72687 l -5e-5,6.92131 h 25.66672 c 27.93885,0 32.99214,0.83718 52.70989,8.73257 15.9763,6.3972 30.1429,15.59892 43.3895,28.18289 l 12.234,11.622 8.2546,0.0647 c 4.5401,0.0356 8.5568,-0.42427 8.9261,-1.02179 z m 38.1526,-0.0758 c 0,-1.75052 -12.8424,-21.06787 -19.5836,-29.45748 -8.618,-10.72516 -28.7317,-28.69616 -41.4299,-37.0163 -26.4389,-17.32334 -58.6313,-28.02008 -91.72273,-30.47722 -12.41338,-0.92174 -38.91144,1.31858 -41.12925,3.47733 -0.70951,0.69061 -0.70469,4.05173 0.012,8.23475 1.02855,6.00498 1.60984,7.00237 3.86549,6.63246 1.46019,-0.23945 11.9549,-0.75237 23.32156,-1.13981 29.68896,-1.01197 53.10133,3.69212 78.35063,15.74252 21.9515,10.47647 49.0584,33.70877 64.4634,55.24912 l 7.0923,9.91684 h 8.3802 c 4.6088,0 8.3799,-0.52301 8.3799,-1.16225 z m 45.53,-6.17108 c 6.9561,-21.11138 8.9735,-57.64512 4.565,-82.66667 -4.3408,-24.63653 -16.7675,-56.97413 -26.6417,-69.32884 l -3.1933,-3.99549 -6.13,2.97817 c -3.3715,1.63799 -6.13,3.51943 -6.13,4.18097 0,0.66155 2.3958,5.30256 5.3239,10.31336 11.044,18.89904 18.6568,41.08035 21.4569,62.5185 2.4381,18.66713 0.8636,50.16209 -3.3537,67.08494 -1.8849,7.56338 -3.4271,14.34332 -3.4271,15.06654 0,0.75825 3.2457,1.14564 7.6667,0.91505 l 7.6666,-0.39987 z m -28.7346,-16.21396 c 5.3835,-22.85351 4.8311,-51.10683 -1.4863,-76.01635 -3.5194,-13.87691 -18.0678,-45.07275 -22.1945,-47.59088 -2.4803,-1.51353 -12.4762,2.23452 -13.5715,5.08876 -0.3377,0.88004 1.7783,5.36279 4.7023,9.96165 17.8068,28.00684 25.8811,72.99374 17.8469,99.43744 -1.0848,3.57075 9.4283,20.34608 11.4709,18.30351 0.7689,-0.76896 2.2234,-4.90181 3.2322,-9.18413 z m -724.64271,-5.68395 2.97312,-9.23124 -3.55185,-14.43543 c -9.78279,-39.75913 -6.35511,-76.45878 10.32093,-110.50445 16.49383,-33.67367 40.24091,-57.52748 74.18799,-74.52143 24.00777,-12.0183 44.67788,-16.74288 73.25047,-16.74288 26.82004,0 51.45611,5.573 73.94927,16.72827 l 9.28259,4.60363 7.74906,-2.99928 c 5.21583,-2.0188 7.62379,-3.6531 7.36588,-4.99928 -0.50173,-2.61886 -26.73598,-15.81538 -40.3595,-20.30188 -47.04744,-15.49372 -95.55576,-12.26427 -138.59647,9.22712 -32.68125,16.31862 -61.858,44.64554 -78.41965,76.13554 -8.094,15.38978 -12.06357,26.28342 -16.47993,45.22556 -3.14056,13.4701 -3.67139,18.66439 -3.71789,36.38032 -0.04,15.24392 0.58822,23.62204 2.39434,31.9299 4.11417,18.9246 12.68069,42.73677 15.37469,42.73677 0.71711,0 2.64174,-4.15405 4.27695,-9.23124 z m 374.49817,-19.84745 c -0.0571,-17.75187 -14.76291,-42.03868 -30.32864,-50.08803 -8.16886,-4.22428 -8.6753,-2.56236 -1.87918,6.16672 8.90502,11.43777 15.04619,21.36876 22.9336,37.08628 3.68622,7.34564 7.28447,12.99585 7.99612,12.55603 0.71166,-0.43983 1.2868,-3.01428 1.2781,-5.721 z m 321.34914,-12.97752 c 0,-45.37443 -26.3451,-87.38264 -67.3333,-107.3654 -15.857,-7.73068 -30.9201,-11.56283 -49.99249,-12.71838 -16.07354,-0.97385 -16.03248,-1.6267 -0.6742,10.71675 6.9355,5.57407 10.15889,7.35693 12.54679,6.93965 5.1425,-0.89866 21.0483,4.14894 33.7562,10.71228 29.7233,15.35151 50.7833,46.01562 55.8402,81.3055 1.4036,9.79553 1.8922,10.87142 7.6281,16.79914 3.3707,3.48334 6.601,6.33334 7.1786,6.33334 0.5775,0 1.0501,-5.7253 1.0501,-12.72288 z M 434.65384,856.25123 c 5.04156,-10.51323 5.34615,-11.84581 5.34615,-23.38955 0,-38.87962 20.76845,-77.61648 54,-100.71958 21.92305,-15.24127 42.18479,-21.90376 70,-23.01752 19.75486,-0.79102 32.63126,0.6517 47.06724,5.27358 7.40824,2.37186 9.48185,2.59891 11.33333,1.24096 1.24635,-0.91412 4.50999,-2.69197 7.25253,-3.95077 2.74255,-1.25879 4.99255,-2.96484 5,-3.7912 0.0327,-3.61641 -24.70488,-11.53261 -45.63672,-14.60411 -21.81378,-3.2009 -47.26774,-0.61182 -66.99859,6.81486 -39.44155,14.84576 -66.30683,38.46242 -83.37346,73.29173 -12.75673,26.03375 -17.77813,52.0532 -14.94257,77.42801 2.32409,20.79772 3.3386,21.30012 10.95209,5.42359 z M 1076,852.27503 c 0,-2.85589 -4.6749,-15.66456 -8.4007,-23.01709 -4.4749,-8.83091 -14.4696,-21.26852 -22.0932,-27.49344 -6.9365,-5.66384 -20.9137,-13.45123 -22.9341,-12.77775 -0.7437,0.24787 0.795,3.44217 3.4193,7.09844 2.6242,3.65628 7.4486,11.14777 10.7208,16.64777 3.2722,5.5 8.0506,12.35899 10.6186,15.2422 2.5681,2.88322 4.7443,6.03322 4.8359,7 0.092,0.96679 0.2417,2.45152 0.3334,3.29942 0.1547,1.43133 20.2729,15.45921 22.5,15.68868 0.55,0.0567 1,-0.70303 1,-1.68823 z m -49.3334,-24.70432 c 0,-1.75052 -12.8423,-21.06787 -19.5836,-29.45748 -13.21698,-16.44872 -39.39037,-37.50435 -58.67047,-47.19845 -19.76975,-9.9403 -43.40139,-16.82716 -67.25755,-19.60059 -17.94348,-2.08604 -18.86186,-1.06415 -8.47593,9.43131 7.33932,7.4167 8.33585,7.98813 13.94586,7.99681 19.88148,0.0308 55.3144,14.10448 78.05188,31.00173 14.11399,10.48875 38.99191,36.95552 37.30411,39.68652 -0.9783,1.58283 0.6587,2.37254 12.3469,5.95636 11.9538,3.66528 12.3388,3.73343 12.3388,2.18379 z M 466.33539,816.62076 c 6.28636,-5.8466 9.31023,-10.14162 14.08079,-20 9.9022,-20.46297 23.75481,-34.8019 43.6203,-45.15166 18.6619,-9.7227 41.7604,-13.91559 59.96351,-10.88471 l 8.66666,1.44304 6,-6.01649 c 4.76535,-4.77846 5.60736,-6.26179 4.09188,-7.2085 -4.0252,-2.51449 -20.02666,-4.65677 -34.09188,-4.56421 -18.36365,0.1208 -31.94594,3.51056 -51.33333,12.81119 -12.89162,6.18444 -15.16793,7.8892 -28.75241,21.53318 -12.94989,13.0066 -15.51347,16.36471 -20.98111,27.4837 -7.7374,15.73476 -14.30189,39.9198 -10.4349,38.44444 0.6407,-0.24444 4.76742,-3.79494 9.17049,-7.88998 z m 277.66459,6.27546 c 0,-0.27687 -1.05,-1.32687 -2.33333,-2.33334 -2.11475,-1.65849 -2.16191,-1.61133 -0.50341,0.50342 1.74182,2.221 2.83674,2.9273 2.83674,1.82992 z m 185.66667,-3.01906 c 2.75,-0.45454 5,-1.36116 5,-2.01469 0,-1.76003 -12.1224,-9.12951 -15.01756,-9.12951 -1.97592,0 -2.3009,0.6246 -1.56092,3 3.05234,9.79826 2.77057,9.60006 11.57848,8.1442 z m 49.76012,-3.2954 c 2.5409,-4.11128 -32.54127,-31.55334 -51.07656,-39.95324 -7.95191,-3.60366 -28.43166,-10.56222 -31.08572,-10.56222 -2.4668,0 -1.19336,3.59148 4.39894,12.40633 4.2818,6.74917 6.40536,8.927 8.7046,8.927 7.01176,0 32.36356,14.39096 44.29862,25.14612 5.73004,5.16357 6.4014,5.4094 14.9213,5.46369 5.17558,0.0329 9.30654,-0.56645 9.83882,-1.42768 z M 521.72776,778.79742 c 15.1261,-7.31584 29.26851,-11.96839 43.07397,-14.17039 9.43603,-1.50508 13.86492,-3.64835 13.86492,-6.70963 0,-3.61509 -22.78041,-1.79518 -37.10115,2.96398 -4.63898,1.54165 -12.73898,5.68917 -18,9.21673 -10.04516,6.73535 -18.54867,14.63485 -15.75386,14.63485 0.90415,0 7.1664,-2.671 13.91612,-5.93554 z m 488.93884,-2.56787 c 0,-0.27687 -1.05,-1.32687 -2.3333,-2.33333 -2.1147,-1.6585 -2.1619,-1.61134 -0.5034,0.50341 1.7418,2.221 2.8367,2.92731 2.8367,1.82992 z m 72.059,-15.82992 c 6.0602,-3.46045 6.4182,-4.81779 2.2744,-8.62429 -5.4358,-4.99332 -23.9568,-16.37571 -26.6459,-16.37571 -2.5695,0 -13.0421,7.34085 -12.9994,9.11204 0.012,0.48837 4.7102,3.48439 10.4409,6.6578 5.7306,3.17341 12.171,7.20183 14.3119,8.95205 4.8597,3.97292 6.0995,4.00026 12.6181,0.27811 z m 30.6608,-15.69376 c 2.9041,-1.48157 5.2802,-3.21279 5.2802,-3.84713 0,-1.8585 -16.9388,-17.16992 -24.6837,-22.3123 -4.5705,-3.0346 -7.9851,-4.43169 -9.5488,-3.90688 -3.0357,1.01886 -11.9859,8.36035 -11.0923,9.09854 0.362,0.299 5.1716,3.62568 10.688,7.39262 5.5164,3.76696 12.0841,8.96848 14.5949,11.55896 5.2637,5.43079 7.4762,5.73298 14.7617,2.01619 z m -151.13989,-8.09832 c 2.06442,-0.80231 12.17546,-1.89511 22.469,-2.42844 l 18.71549,-0.96969 6.9512,-5.1895 c 3.8231,-2.85422 6.9511,-5.89393 6.9511,-6.7549 0,-2.316 -24.95216,-5.03448 -36.43415,-3.96943 -18.71024,1.73556 -43.56584,7.43529 -43.56584,9.99025 0,0.48683 4.65,3.05366 10.33334,5.70406 5.68333,2.6504 10.44428,4.87684 10.57986,4.94765 0.1356,0.0708 1.9356,-0.52769 4,-1.33 z M 917.33331,719.316 c 0,-3.84388 27.45223,-12.99233 48.00447,-15.99746 14.41771,-2.10815 46.92482,-0.96798 60.33222,2.11613 l 10.3367,2.37775 6.6607,-4.53972 c 3.6634,-2.49686 6.6619,-5.2665 6.6633,-6.15475 0,-1.89607 -8.8132,-4.68159 -27.3307,-8.63525 -10.013,-2.13786 -18.1478,-2.86072 -32.66669,-2.90274 -21.53902,-0.0624 -34.91937,2.02643 -55.95162,8.73443 -16.40028,5.23069 -42.71504,18.14515 -42.71504,20.96319 0,0.98249 17.86626,4.97797 23.66666,5.29264 1.65,0.0895 3,-0.47488 3,-1.25422 z m -68.66666,-2.58304 c 0.45323,-0.73333 4.92444,-1.33333 9.93604,-1.33333 13.77132,0 13.46978,-3.07707 -1.26937,-12.95395 -14.62094,-9.79764 -30.69986,-15.6568 -48.38034,-17.62978 -11.79453,-1.31618 -28.49757,-0.56519 -29.67137,1.33406 -0.34785,0.56284 6.08543,3.26186 14.2962,5.9978 16.29607,5.43008 33.98349,13.8399 44.42217,21.12132 7.0299,4.90366 9.31768,5.64659 10.66667,3.46388 z m 46.8224,-20.92273 c 3.89885,-1.97417 7.37774,-4.34235 7.73089,-5.2626 1.37057,-3.57168 -21.17967,-21.39585 -37.44307,-29.59573 -52.69935,-26.57064 -108.80913,-22.06736 -157.44355,12.63614 -12.5518,8.95646 -11.61387,10.11646 7.26706,8.98766 14.25483,-0.85224 16.52614,-1.36627 26.33334,-5.95967 17.91253,-8.38968 28.2274,-10.75609 50.06626,-11.48609 25.29898,-0.84566 39.90696,1.98596 59.72626,11.5773 13.00457,6.29344 28.64786,16.32348 32.27483,20.69371 2.246,2.70627 3.28614,2.56224 11.48798,-1.59072 z m 38.48293,-17.93152 c 4.78207,-1.56984 8.69467,-3.53015 8.69467,-4.35624 0,-2.55831 -11.52146,-14.82961 -22.34351,-23.79771 -12.41835,-10.2909 -31.192,-22.74898 -39.94721,-26.50872 -3.50678,-1.5059 -8.77595,-3.83664 -11.70928,-5.17942 -7.73603,-3.54128 -26.08323,-8.72467 -40.66667,-11.48902 -19.48893,-3.69418 -46.7377,-3.1954 -68.3107,1.25043 -33.33688,6.87016 -66.72389,24.01751 -91.27268,46.87707 l -10.23423,9.53 7.9088,4.46869 c 18.48148,10.44256 16.77198,9.67096 14.94504,6.74556 -1.39204,-2.22899 -1.06128,-3.18464 2.33784,-6.75476 6.86163,-7.20681 23.05908,-18.6772 35.97891,-25.47883 24.79354,-13.05253 47.55592,-18.43501 77.98036,-18.43957 28.73184,-0.004 51.55626,5.387 76.66666,18.10927 15.04605,7.62312 36.14937,22.81477 45.92823,33.06237 2.52718,2.64832 4.76458,4.81513 4.972,4.81513 0.20741,0 4.2897,-1.28441 9.07177,-2.85425 z m 54.38508,-9.03784 c 2.03975,-1.90357 -13.10145,-21.14569 -29.54323,-37.54485 -13.01189,-12.97819 -20.73328,-19.34799 -34.14718,-28.16996 -20.8389,-13.70518 -26.8297,-16.79583 -47.08967,-24.29358 -51.25288,-18.96749 -100.32646,-20.05546 -151.577,-3.3605 -16.02482,5.22012 -42.02743,17.54501 -53.75273,25.47806 -23.50228,15.9011 -55.6116,46.93262 -51.26844,49.54754 0.56166,0.33814 5.22118,1.90952 10.35451,3.49192 l 9.33333,2.87709 1.8876,-3.06681 c 3.19418,-5.18959 22.75555,-23.28792 33.64399,-31.12766 17.49851,-12.59902 44.10208,-25.48213 63.80174,-30.8968 18.52844,-5.09273 24.51192,-5.90645 48.69675,-6.6225 35.83448,-1.06098 58.52069,2.58321 85.78816,13.78054 33.06298,13.57726 55.46601,29.8078 82.6027,59.84406 l 10.88175,12.04445 9.68199,-0.5128 c 5.32509,-0.28204 10.14266,-0.94273 10.70573,-1.4682 z"
       id="path1670"
       inkscape:connector-curvature="0"
       sodipodi:nodetypes="czscssccssszcsscssssccsccsccscccsssssccccsccssssssccccsssssccsccsscsssccsssssccsscscscscssccscssscccsssccscscssccscccccscssccsssscsccssscccsscscccssssssccsscssscscscscsssssscssssscscccscscscsscsccsccscscscsccccccsscccscccsccccscsscccssccccccccccccssssccccsssssssccsccccssssccccssssssccccssssssccccsccccsscssccsccscsscccccsssccsccscssscccssssccscsccsssccsccscccccscccccccsccscssccssscscscsscscscccsscccssssscccssccccsscscsscssssccsssccsccssssscsc" />
    <path
       style="fill:#6b6b6b;stroke-width:1.33333337"
       d="m 750.4047,1307.2905 c -105.23006,-7.127 -204.33843,-47.7577 -276.7691,-113.465 -61.03841,-55.3724 -99.58305,-127.6093 -109.79053,-205.75936 -1.83238,-14.02896 -2.35161,-51.90582 -0.73397,-53.54239 1.45288,-1.46988 840.3249,-1.46988 841.7778,0 1.6176,1.63657 1.0984,39.51343 -0.734,53.54239 -5.8493,44.78336 -21.4104,89.10106 -44.6712,127.22326 -77.6602,127.2772 -239.96496,203.4549 -409.079,192.0011 z m 325.636,-524.51659 c -6.1785,-6.21081 -10.9653,-11.55193 -10.6372,-11.86915 0.3281,-0.31722 5.6965,-3.023 11.9298,-6.01284 6.2333,-2.98985 14.9333,-7.54157 19.3333,-10.11496 4.4,-2.57337 8.9014,-4.68602 10.0031,-4.69477 1.1017,-0.009 7.1017,-3.03091 13.3333,-6.71591 6.2317,-3.68501 12.8303,-7.06788 14.6636,-7.51746 1.8334,-0.4496 88.5048,-43.75632 192.6031,-96.23718 104.0984,-52.48084 190.9568,-95.6673 193.0187,-95.96992 8.212,-1.20528 15.7116,5.36172 15.7116,13.75791 0,9.43633 8.138,4.94463 -190.5788,105.18916 -102.6695,51.79263 -188.8355,95.63671 -191.4799,97.43128 -2.6445,1.79456 -8.1129,4.49931 -12.152,6.01055 -4.0392,1.51124 -11.3274,5.15026 -16.1961,8.08672 -4.8687,2.93645 -11.0265,5.92448 -13.6839,6.64004 -2.6574,0.71557 -7.2317,3.03957 -10.165,5.16445 -4.7223,3.42083 -12.8657,8.14447 -14.0409,8.14447 -0.2359,0 -5.4841,-5.08158 -11.6627,-11.29239 z m -59.3741,-35.42652 c -6.6,-2.07861 -13.65,-4.12864 -15.6666,-4.5556 -5.49879,-1.16419 -4.43625,-3.52909 4.0277,-8.96437 4.2014,-2.69806 11.2389,-8.00492 15.6389,-11.79306 4.4,-3.78812 11.9,-9.49237 16.6667,-12.6761 4.7667,-3.18374 11.9352,-8.58624 15.9302,-12.00558 3.9949,-3.41934 10.6727,-8.48145 14.8395,-11.24914 4.1668,-2.76768 93.2983,-70.04676 198.0698,-149.50906 104.7716,-79.46228 193.4041,-146.43843 196.9612,-148.83587 3.6732,-2.47578 8.1661,-4.35898 10.3994,-4.35898 11.066,0 17.5494,10.44181 12.8659,20.72099 -1.03,2.26058 -70.3165,55.61054 -194.3334,149.63477 -106.0029,80.36689 -192.9353,146.62227 -193.183,147.23417 -0.2477,0.6119 -5.6477,4.78991 -12,9.28448 -6.3523,4.49456 -13.8338,10.21583 -16.6255,12.71391 -2.7918,2.49808 -8.2776,6.59003 -12.1907,9.09319 -3.9131,2.50317 -10.9245,7.87385 -15.5809,11.93485 -4.6721,4.07471 -9.6656,7.32248 -11.1427,7.24717 -1.472,-0.0751 -8.0765,-1.83714 -14.6765,-3.91577 z"
       id="path1668"
       inkscape:connector-curvature="0" />
    <path
       style="fill:#333333;fill-opacity:1;stroke-width:1.33333337"
       d="m 768.14976,1155.9586 c -23.79967,-6.4005 -42.57174,-26.7006 -47.07292,-50.9045 -1.75319,-9.4273 -0.91174,-12.6798 3.12561,-12.0816 2.37967,0.3525 3.26299,2.0571 5.07568,9.7946 4.66601,19.9171 14.84845,33.2543 31.77531,41.62 9.5951,4.7421 10.83157,5.0122 22.94654,5.0122 12.11498,0 13.35144,-0.2701 22.94655,-5.0122 16.92685,-8.3657 27.10929,-21.7029 31.77531,-41.62 1.81269,-7.7375 2.69601,-9.4421 5.07568,-9.7946 4.03734,-0.5982 4.8788,2.6543 3.12561,12.0816 -6.75841,36.3415 -43.83461,60.3007 -78.77337,50.9045 z m -228.03573,-54.8488 c -7.87115,-2.7801 -16.47487,-11.592 -19.23912,-19.7047 -9.59363,-28.1557 15.64183,-53.3911 43.79756,-43.7975 8.43905,2.8754 16.91046,11.3469 19.78593,19.7859 9.63715,28.2835 -16.12708,53.6828 -44.34437,43.7163 z m 462.66667,0 c -7.87116,-2.7801 -16.47488,-11.592 -19.23913,-19.7047 -9.59363,-28.1557 15.64182,-53.3911 43.79753,-43.7975 8.4391,2.8754 16.9105,11.3469 19.786,19.7859 9.6371,28.2835 -16.1271,53.6828 -44.3444,43.7163 z"
       id="path1666"
       inkscape:connector-curvature="0" />
  </g>
</svg>
